<?xml version="1.0" encoding="UTF-8"?>
<!DOCTYPE svg PUBLIC "-//W3C//DTD SVG 1.1//EN" "http://www.w3.org/Graphics/SVG/1.1/DTD/svg11.dtd">
<svg version="1.1" xmlns="http://www.w3.org/2000/svg" xmlns:xlink="http://www.w3.org/1999/xlink" x="0" y="0" width="192.84" height="68.948" viewBox="0, 0, 192.84, 68.948">
  <g id="logo" transform="translate(-288.27, -607.46)">
    <g>
      <path d="M288.27,608.54 L297.27,608.54 Q304.95,608.54 307.35,609.14 Q309.75,609.74 311.76,611.3 Q313.77,612.86 314.91,615.2 Q316.05,617.54 316.05,620.48 Q316.05,623.42 314.94,625.76 Q313.83,628.1 311.76,629.63 Q309.69,631.16 306.69,631.79 Q303.69,632.42 296.07,632.42 L293.43,632.42 L293.43,652.46 L288.27,652.46 z M293.43,627.44 L300.27,627.44 Q306.33,627.56 308.52,625.52 Q310.71,623.48 310.71,620.42 Q310.71,613.58 300.63,613.58 L293.43,613.58 z" fill="#FFFFFF"/>
      <path d="M344.79,607.46 Q351.21,607.46 356.61,610.49 Q362.01,613.52 365.1,618.86 Q368.19,624.2 368.19,630.47 Q368.19,636.74 365.13,642.08 Q362.07,647.42 356.73,650.48 Q351.39,653.54 345.12,653.54 Q338.85,653.54 333.45,650.51 Q328.05,647.48 324.99,642.17 Q321.93,636.86 321.93,630.59 Q321.93,624.32 324.99,618.95 Q328.05,613.58 333.36,610.52 Q338.67,607.46 344.79,607.46 z M344.97,648.5 Q352.47,648.5 357.66,643.4 Q362.85,638.3 362.85,630.62 Q362.85,622.94 357.6,617.72 Q352.35,612.5 344.97,612.5 Q337.41,612.5 332.34,617.75 Q327.27,623 327.27,630.53 Q327.27,638.06 332.49,643.28 Q337.71,648.5 344.97,648.5 z" fill="#FFFFFF"/>
      <path d="M380.49,652.46 L375.33,652.46 L375.33,608.54 L380.49,608.54 z" fill="#FFFFFF"/>
      <path d="M424.23,652.46 L422.67,652.46 L394.83,620.6 L394.83,652.46 L389.55,652.46 L389.55,608.54 L391.11,608.54 L419.13,640.82 L419.13,608.54 L424.23,608.54 z" fill="#FFFFFF"/>
      <path d="M454.11,613.58 L444.51,613.58 L444.51,652.46 L439.29,652.46 L439.29,613.58 L429.63,613.58 L429.63,608.54 L454.11,608.54 z" fill="#FFFFFF"/>
      <path d="M476.37,618.2 Q473.97,614.96 472.29,613.85 Q470.61,612.74 468.36,612.74 Q466.11,612.74 464.58,614.18 Q463.05,615.62 463.05,617.87 Q463.05,620.12 464.49,621.8 Q465.93,623.48 471.12,627.29 Q476.31,631.1 478.71,634.46 Q481.11,637.82 481.11,641.54 Q481.11,646.4 477.36,649.97 Q473.61,653.54 468.63,653.54 Q459.87,653.54 454.89,643.76 L459.27,641.24 Q463.17,648.5 468.03,648.5 Q471.15,648.5 473.37,646.52 Q475.59,644.54 475.59,641.9 Q475.59,639.26 473.73,636.89 Q471.87,634.52 467.31,631.07 Q462.75,627.62 461.04,625.82 Q459.33,624.02 458.55,621.98 Q457.77,619.94 457.77,617.9 Q457.77,613.52 460.8,610.49 Q463.83,607.46 468.63,607.46 Q472.35,607.46 475.11,609.35 Q477.87,611.24 480.51,614.96 z" fill="#FFFFFF"/>
      <path d="M343.531,670.766 Q343.531,671.273 343.687,671.702 Q343.843,672.131 344.116,672.443 Q344.389,672.755 344.753,672.93 Q345.117,673.106 345.546,673.106 Q345.91,673.106 346.248,672.969 Q346.586,672.833 346.846,672.527 Q347.106,672.222 347.262,671.734 Q347.418,671.247 347.418,670.532 Q347.418,669.323 346.924,668.731 Q346.43,668.14 345.663,668.14 Q345,668.14 344.454,668.465 Q343.908,668.79 343.531,669.323 z M342.66,664.955 L343.531,664.955 L343.531,668.608 Q343.674,668.413 343.902,668.192 Q344.129,667.971 344.428,667.782 Q344.727,667.594 345.078,667.477 Q345.429,667.36 345.832,667.36 Q346.43,667.36 346.892,667.613 Q347.353,667.867 347.659,668.302 Q347.964,668.738 348.12,669.316 Q348.276,669.895 348.276,670.532 Q348.276,671.364 348.088,671.988 Q347.899,672.612 347.555,673.034 Q347.21,673.457 346.736,673.665 Q346.261,673.873 345.689,673.873 Q345.338,673.873 345.013,673.762 Q344.688,673.652 344.415,673.47 Q344.142,673.288 343.921,673.034 Q343.7,672.781 343.557,672.495 L343.349,673.756 L342.66,673.756 z" fill="#FFFFFF"/>
      <path d="M354.152,672.365 Q354.009,672.599 353.801,672.839 Q353.593,673.08 353.314,673.288 Q353.034,673.496 352.683,673.626 Q352.332,673.756 351.916,673.756 Q350.954,673.756 350.402,673.171 Q349.849,672.586 349.849,671.312 L349.849,667.477 L350.694,667.477 L350.694,671.312 Q350.694,672.118 351.045,672.56 Q351.396,673.002 352.033,673.002 Q352.397,673.002 352.716,672.885 Q353.034,672.768 353.301,672.579 Q353.567,672.391 353.781,672.15 Q353.996,671.91 354.152,671.65 L354.152,667.477 L355.036,667.477 L355.036,673.327 Q355.036,674.887 354.302,675.647 Q353.567,676.408 352.228,676.408 Q351.617,676.408 351.032,676.252 Q350.447,676.096 350.096,675.862 Q350.148,675.693 350.22,675.511 Q350.291,675.329 350.343,675.173 Q350.707,675.381 351.182,675.511 Q351.656,675.641 352.176,675.641 Q352.657,675.641 353.021,675.524 Q353.385,675.407 353.639,675.14 Q353.892,674.874 354.022,674.425 Q354.152,673.977 354.152,673.314 z" fill="#FFFFFF"/>
      <path d="M364.721,669.31 Q364.37,668.764 363.87,668.452 Q363.369,668.14 362.823,668.14 Q362.394,668.14 362.03,668.289 Q361.666,668.439 361.4,668.744 Q361.133,669.05 360.984,669.518 Q360.834,669.986 360.834,670.61 Q360.834,671.299 360.99,671.773 Q361.146,672.248 361.413,672.54 Q361.679,672.833 362.017,672.969 Q362.355,673.106 362.719,673.106 Q363.135,673.106 363.499,672.93 Q363.863,672.755 364.136,672.443 Q364.409,672.131 364.565,671.702 Q364.721,671.273 364.721,670.766 z M365.592,673.756 L364.903,673.756 L364.695,672.508 Q364.409,673.08 363.85,673.476 Q363.291,673.873 362.589,673.873 Q362.017,673.873 361.536,673.665 Q361.055,673.457 360.711,673.047 Q360.366,672.638 360.178,672.033 Q359.989,671.429 359.989,670.623 Q359.989,669.921 360.171,669.329 Q360.353,668.738 360.698,668.296 Q361.042,667.854 361.543,667.607 Q362.043,667.36 362.667,667.36 Q363.031,667.36 363.35,667.47 Q363.668,667.581 363.928,667.763 Q364.188,667.945 364.383,668.166 Q364.578,668.387 364.721,668.608 L364.721,664.955 L365.592,664.955 z" fill="#FFFFFF"/>
      <path d="M368.049,671 Q368.127,672.04 368.693,672.612 Q369.258,673.184 370.311,673.184 Q370.74,673.184 371.176,673.099 Q371.611,673.015 371.975,672.846 L372.17,673.47 Q371.767,673.652 371.286,673.762 Q370.805,673.873 370.233,673.873 Q368.712,673.873 367.965,672.989 Q367.217,672.105 367.217,670.61 Q367.217,669.921 367.386,669.323 Q367.555,668.725 367.9,668.289 Q368.244,667.854 368.777,667.607 Q369.31,667.36 370.051,667.36 Q371.26,667.36 371.884,668.049 Q372.508,668.738 372.508,669.947 Q372.508,670.246 372.476,670.506 Q372.443,670.766 372.378,671 z M370.051,668.01 Q369.544,668.01 369.174,668.185 Q368.803,668.361 368.563,668.679 Q368.322,668.998 368.199,669.433 Q368.075,669.869 368.049,670.389 L371.676,670.389 Q371.702,670.324 371.702,670.155 Q371.702,669.986 371.702,669.947 Q371.702,669.011 371.325,668.51 Q370.948,668.01 370.051,668.01 z" fill="#FFFFFF"/>
      <path d="M376.083,671.065 L374.237,673.756 L373.314,673.756 L375.615,670.48 L373.522,667.477 L374.432,667.477 L375.953,669.739 Q376.005,669.843 376.057,669.882 Q376.083,669.908 376.083,669.921 L377.747,667.477 L378.67,667.477 L376.564,670.48 L378.878,673.756 L377.955,673.756 z" fill="#FFFFFF"/>
      <path d="M381.179,673.756 L380.295,673.756 L380.295,667.477 L381.179,667.477 z M380.113,665.436 Q380.113,665.176 380.276,665 Q380.438,664.825 380.737,664.825 Q381.049,664.825 381.205,665 Q381.361,665.176 381.361,665.436 Q381.361,665.696 381.205,665.871 Q381.049,666.047 380.737,666.047 Q380.438,666.047 380.276,665.871 Q380.113,665.696 380.113,665.436 z" fill="#FFFFFF"/>
      <path d="M384.377,672.066 Q384.377,672.625 384.553,672.904 Q384.728,673.184 385.248,673.184 Q385.547,673.184 385.788,673.125 Q386.028,673.067 386.236,672.963 Q386.288,673.132 386.34,673.262 Q386.392,673.392 386.444,673.561 Q386.21,673.704 385.885,673.788 Q385.56,673.873 385.105,673.873 Q384.312,673.873 383.922,673.444 Q383.532,673.015 383.532,672.079 L383.532,668.166 L382.518,668.166 L382.518,667.477 L383.532,667.477 L383.792,665.657 L384.377,665.657 L384.377,667.477 L386.353,667.477 L386.353,668.166 L384.377,668.166 z" fill="#FFFFFF"/>
      <path d="M391.28,673.145 Q392.034,673.145 392.593,672.885 Q393.152,672.625 393.523,672.137 Q393.893,671.65 394.075,670.948 Q394.257,670.246 394.257,669.375 Q394.257,668.504 394.075,667.802 Q393.893,667.1 393.523,666.612 Q393.152,666.125 392.593,665.865 Q392.034,665.605 391.28,665.605 Q390.526,665.605 389.961,665.865 Q389.395,666.125 389.025,666.612 Q388.654,667.1 388.472,667.802 Q388.29,668.504 388.29,669.375 Q388.29,670.246 388.472,670.948 Q388.654,671.65 389.025,672.137 Q389.395,672.625 389.961,672.885 Q390.526,673.145 391.28,673.145 z M391.28,673.873 Q390.279,673.873 389.558,673.535 Q388.836,673.197 388.355,672.592 Q387.874,671.988 387.647,671.162 Q387.419,670.337 387.419,669.375 Q387.419,668.413 387.647,667.587 Q387.874,666.762 388.355,666.157 Q388.836,665.553 389.558,665.215 Q390.279,664.877 391.28,664.877 Q392.268,664.877 393.003,665.215 Q393.737,665.553 394.212,666.157 Q394.686,666.762 394.92,667.587 Q395.154,668.413 395.154,669.375 Q395.154,670.337 394.92,671.162 Q394.686,671.988 394.212,672.592 Q393.737,673.197 393.003,673.535 Q392.268,673.873 391.28,673.873 z" fill="#FFFFFF"/>
      <path d="M401.082,667.477 L401.953,667.477 L401.953,673.756 L401.264,673.756 L401.056,672.534 Q400.913,672.755 400.705,672.989 Q400.497,673.223 400.205,673.418 Q399.912,673.613 399.548,673.743 Q399.184,673.873 398.755,673.873 Q397.858,673.873 397.293,673.288 Q396.727,672.703 396.727,671.429 L396.727,667.477 L397.572,667.477 L397.572,671.429 Q397.572,672.235 397.93,672.677 Q398.287,673.119 398.911,673.119 Q399.275,673.119 399.594,673.008 Q399.912,672.898 400.185,672.709 Q400.458,672.521 400.686,672.274 Q400.913,672.027 401.082,671.767 z" fill="#FFFFFF"/>
      <path d="M405.047,672.066 Q405.047,672.625 405.223,672.904 Q405.398,673.184 405.918,673.184 Q406.217,673.184 406.458,673.125 Q406.698,673.067 406.906,672.963 Q406.958,673.132 407.01,673.262 Q407.062,673.392 407.114,673.561 Q406.88,673.704 406.555,673.788 Q406.23,673.873 405.775,673.873 Q404.982,673.873 404.592,673.444 Q404.202,673.015 404.202,672.079 L404.202,668.166 L403.188,668.166 L403.188,667.477 L404.202,667.477 L404.462,665.657 L405.047,665.657 L405.047,667.477 L407.023,667.477 L407.023,668.166 L405.047,668.166 z" fill="#FFFFFF"/>
      <path d="M409.35,670.766 Q409.35,671.273 409.506,671.702 Q409.662,672.131 409.935,672.443 Q410.208,672.755 410.572,672.93 Q410.936,673.106 411.365,673.106 Q411.729,673.106 412.074,672.969 Q412.418,672.833 412.672,672.527 Q412.925,672.222 413.081,671.734 Q413.237,671.247 413.237,670.532 Q413.237,669.323 412.743,668.731 Q412.249,668.14 411.482,668.14 Q410.858,668.14 410.293,668.465 Q409.727,668.79 409.35,669.323 z M409.181,667.477 L409.363,668.582 Q409.506,668.387 409.734,668.166 Q409.961,667.945 410.254,667.769 Q410.546,667.594 410.904,667.477 Q411.261,667.36 411.651,667.36 Q412.249,667.36 412.711,667.613 Q413.172,667.867 413.478,668.302 Q413.783,668.738 413.939,669.316 Q414.095,669.895 414.095,670.532 Q414.095,671.364 413.907,671.988 Q413.718,672.612 413.374,673.034 Q413.029,673.457 412.555,673.665 Q412.08,673.873 411.508,673.873 Q410.806,673.873 410.26,673.509 Q409.714,673.145 409.441,672.638 L409.35,672.664 L409.35,676.278 L408.479,676.278 L408.479,667.477 z" fill="#FFFFFF"/>
      <path d="M420.023,667.477 L420.894,667.477 L420.894,673.756 L420.205,673.756 L419.997,672.534 Q419.854,672.755 419.646,672.989 Q419.438,673.223 419.146,673.418 Q418.853,673.613 418.489,673.743 Q418.125,673.873 417.696,673.873 Q416.799,673.873 416.233,673.288 Q415.668,672.703 415.668,671.429 L415.668,667.477 L416.513,667.477 L416.513,671.429 Q416.513,672.235 416.871,672.677 Q417.228,673.119 417.852,673.119 Q418.216,673.119 418.535,673.008 Q418.853,672.898 419.126,672.709 Q419.399,672.521 419.626,672.274 Q419.854,672.027 420.023,671.767 z" fill="#FFFFFF"/>
      <path d="M423.988,672.066 Q423.988,672.625 424.164,672.904 Q424.339,673.184 424.859,673.184 Q425.158,673.184 425.398,673.125 Q425.639,673.067 425.847,672.963 Q425.899,673.132 425.951,673.262 Q426.003,673.392 426.055,673.561 Q425.821,673.704 425.496,673.788 Q425.171,673.873 424.716,673.873 Q423.923,673.873 423.533,673.444 Q423.143,673.015 423.143,672.079 L423.143,668.166 L422.129,668.166 L422.129,667.477 L423.143,667.477 L423.403,665.657 L423.988,665.657 L423.988,667.477 L425.964,667.477 L425.964,668.166 L423.988,668.166 z" fill="#FFFFFF"/>
    </g>
  </g>
</svg>
