<?xml version="1.0" encoding="UTF-8"?>
<!DOCTYPE svg PUBLIC "-//W3C//DTD SVG 1.1//EN" "http://www.w3.org/Graphics/SVG/1.1/DTD/svg11.dtd">
<svg version="1.1" xmlns="http://www.w3.org/2000/svg" xmlns:xlink="http://www.w3.org/1999/xlink" x="0" y="0" width="192.84" height="68.948" viewBox="0, 0, 192.84, 68.948">
  <g id="logo" transform="translate(-288.27, -185.128)">
    <g>
      <path d="M288.27,186.208 L297.27,186.208 Q304.95,186.208 307.35,186.808 Q309.75,187.408 311.76,188.968 Q313.77,190.528 314.91,192.868 Q316.05,195.208 316.05,198.148 Q316.05,201.088 314.94,203.428 Q313.83,205.768 311.76,207.298 Q309.69,208.828 306.69,209.458 Q303.69,210.088 296.07,210.088 L293.43,210.088 L293.43,230.128 L288.27,230.128 z M293.43,205.108 L300.27,205.108 Q306.33,205.228 308.52,203.188 Q310.71,201.148 310.71,198.088 Q310.71,191.248 300.63,191.248 L293.43,191.248 z" fill="#FFFFFF"/>
      <path d="M344.79,185.128 Q351.21,185.128 356.61,188.158 Q362.01,191.188 365.1,196.528 Q368.19,201.868 368.19,208.138 Q368.19,214.408 365.13,219.748 Q362.07,225.088 356.73,228.148 Q351.39,231.208 345.12,231.208 Q338.85,231.208 333.45,228.178 Q328.05,225.148 324.99,219.838 Q321.93,214.528 321.93,208.258 Q321.93,201.988 324.99,196.618 Q328.05,191.248 333.36,188.188 Q338.67,185.128 344.79,185.128 z M344.97,226.168 Q352.47,226.168 357.66,221.068 Q362.85,215.968 362.85,208.288 Q362.85,200.608 357.6,195.388 Q352.35,190.168 344.97,190.168 Q337.41,190.168 332.34,195.418 Q327.27,200.668 327.27,208.198 Q327.27,215.728 332.49,220.948 Q337.71,226.168 344.97,226.168 z" fill="#FFFFFF"/>
      <path d="M380.49,230.128 L375.33,230.128 L375.33,186.208 L380.49,186.208 z" fill="#FFFFFF"/>
      <path d="M424.23,230.128 L422.67,230.128 L394.83,198.268 L394.83,230.128 L389.55,230.128 L389.55,186.208 L391.11,186.208 L419.13,218.488 L419.13,186.208 L424.23,186.208 z" fill="#FFFFFF"/>
      <path d="M454.11,191.248 L444.51,191.248 L444.51,230.128 L439.29,230.128 L439.29,191.248 L429.63,191.248 L429.63,186.208 L454.11,186.208 z" fill="#FFFFFF"/>
      <path d="M476.37,195.868 Q473.97,192.628 472.29,191.518 Q470.61,190.408 468.36,190.408 Q466.11,190.408 464.58,191.848 Q463.05,193.288 463.05,195.538 Q463.05,197.788 464.49,199.468 Q465.93,201.148 471.12,204.958 Q476.31,208.768 478.71,212.128 Q481.11,215.488 481.11,219.208 Q481.11,224.068 477.36,227.638 Q473.61,231.208 468.63,231.208 Q459.87,231.208 454.89,221.428 L459.27,218.908 Q463.17,226.168 468.03,226.168 Q471.15,226.168 473.37,224.188 Q475.59,222.208 475.59,219.568 Q475.59,216.928 473.73,214.558 Q471.87,212.188 467.31,208.738 Q462.75,205.288 461.04,203.488 Q459.33,201.688 458.55,199.648 Q457.77,197.608 457.77,195.568 Q457.77,191.188 460.8,188.158 Q463.83,185.128 468.63,185.128 Q472.35,185.128 475.11,187.018 Q477.87,188.908 480.51,192.628 z" fill="#FFFFFF"/>
      <path d="M326.722,248.433 Q326.722,248.94 326.878,249.369 Q327.034,249.798 327.307,250.11 Q327.58,250.422 327.944,250.598 Q328.308,250.773 328.737,250.773 Q329.101,250.773 329.439,250.637 Q329.777,250.5 330.037,250.195 Q330.297,249.889 330.453,249.402 Q330.609,248.914 330.609,248.199 Q330.609,246.99 330.115,246.399 Q329.621,245.807 328.854,245.807 Q328.191,245.807 327.645,246.132 Q327.099,246.457 326.722,246.99 z M325.851,242.622 L326.722,242.622 L326.722,246.275 Q326.865,246.08 327.092,245.859 Q327.32,245.638 327.619,245.45 Q327.918,245.261 328.269,245.144 Q328.62,245.027 329.023,245.027 Q329.621,245.027 330.082,245.281 Q330.544,245.534 330.849,245.97 Q331.155,246.405 331.311,246.984 Q331.467,247.562 331.467,248.199 Q331.467,249.031 331.278,249.655 Q331.09,250.279 330.745,250.702 Q330.401,251.124 329.926,251.332 Q329.452,251.54 328.88,251.54 Q328.529,251.54 328.204,251.43 Q327.879,251.319 327.606,251.137 Q327.333,250.955 327.112,250.702 Q326.891,250.448 326.748,250.162 L326.54,251.423 L325.851,251.423 z" fill="#FFFFFF"/>
      <path d="M337.343,250.032 Q337.2,250.266 336.992,250.507 Q336.784,250.747 336.504,250.955 Q336.225,251.163 335.874,251.293 Q335.523,251.423 335.107,251.423 Q334.145,251.423 333.592,250.838 Q333.04,250.253 333.04,248.979 L333.04,245.144 L333.885,245.144 L333.885,248.979 Q333.885,249.785 334.236,250.227 Q334.587,250.669 335.224,250.669 Q335.588,250.669 335.906,250.552 Q336.225,250.435 336.491,250.247 Q336.758,250.058 336.972,249.818 Q337.187,249.577 337.343,249.317 L337.343,245.144 L338.227,245.144 L338.227,250.994 Q338.227,252.554 337.492,253.315 Q336.758,254.075 335.419,254.075 Q334.808,254.075 334.223,253.919 Q333.638,253.763 333.287,253.529 Q333.339,253.36 333.41,253.178 Q333.482,252.996 333.534,252.84 Q333.898,253.048 334.372,253.178 Q334.847,253.308 335.367,253.308 Q335.848,253.308 336.212,253.191 Q336.576,253.074 336.829,252.808 Q337.083,252.541 337.213,252.093 Q337.343,251.644 337.343,250.981 z" fill="#FFFFFF"/>
      <path d="M347.912,246.977 Q347.561,246.431 347.06,246.119 Q346.56,245.807 346.014,245.807 Q345.585,245.807 345.221,245.957 Q344.857,246.106 344.59,246.412 Q344.324,246.717 344.174,247.185 Q344.025,247.653 344.025,248.277 Q344.025,248.966 344.181,249.441 Q344.337,249.915 344.603,250.208 Q344.87,250.5 345.208,250.637 Q345.546,250.773 345.91,250.773 Q346.326,250.773 346.69,250.598 Q347.054,250.422 347.327,250.11 Q347.6,249.798 347.756,249.369 Q347.912,248.94 347.912,248.433 z M348.783,251.423 L348.094,251.423 L347.886,250.175 Q347.6,250.747 347.041,251.144 Q346.482,251.54 345.78,251.54 Q345.208,251.54 344.727,251.332 Q344.246,251.124 343.901,250.715 Q343.557,250.305 343.368,249.701 Q343.18,249.096 343.18,248.29 Q343.18,247.588 343.362,246.997 Q343.544,246.405 343.888,245.963 Q344.233,245.521 344.733,245.274 Q345.234,245.027 345.858,245.027 Q346.222,245.027 346.54,245.138 Q346.859,245.248 347.119,245.43 Q347.379,245.612 347.574,245.833 Q347.769,246.054 347.912,246.275 L347.912,242.622 L348.783,242.622 z" fill="#FFFFFF"/>
      <path d="M351.24,248.667 Q351.318,249.707 351.883,250.279 Q352.449,250.851 353.502,250.851 Q353.931,250.851 354.366,250.767 Q354.802,250.682 355.166,250.513 L355.361,251.137 Q354.958,251.319 354.477,251.43 Q353.996,251.54 353.424,251.54 Q351.903,251.54 351.155,250.656 Q350.408,249.772 350.408,248.277 Q350.408,247.588 350.577,246.99 Q350.746,246.392 351.09,245.957 Q351.435,245.521 351.968,245.274 Q352.501,245.027 353.242,245.027 Q354.451,245.027 355.075,245.716 Q355.699,246.405 355.699,247.614 Q355.699,247.913 355.666,248.173 Q355.634,248.433 355.569,248.667 z M353.242,245.677 Q352.735,245.677 352.364,245.853 Q351.994,246.028 351.753,246.347 Q351.513,246.665 351.389,247.101 Q351.266,247.536 351.24,248.056 L354.867,248.056 Q354.893,247.991 354.893,247.822 Q354.893,247.653 354.893,247.614 Q354.893,246.678 354.516,246.178 Q354.139,245.677 353.242,245.677 z" fill="#FFFFFF"/>
      <path d="M359.274,248.732 L357.428,251.423 L356.505,251.423 L358.806,248.147 L356.713,245.144 L357.623,245.144 L359.144,247.406 Q359.196,247.51 359.248,247.549 Q359.274,247.575 359.274,247.588 L360.938,245.144 L361.861,245.144 L359.755,248.147 L362.069,251.423 L361.146,251.423 z" fill="#FFFFFF"/>
      <path d="M364.37,251.423 L363.486,251.423 L363.486,245.144 L364.37,245.144 z M363.304,243.103 Q363.304,242.843 363.466,242.668 Q363.629,242.492 363.928,242.492 Q364.24,242.492 364.396,242.668 Q364.552,242.843 364.552,243.103 Q364.552,243.363 364.396,243.539 Q364.24,243.714 363.928,243.714 Q363.629,243.714 363.466,243.539 Q363.304,243.363 363.304,243.103 z" fill="#FFFFFF"/>
      <path d="M367.568,249.733 Q367.568,250.292 367.743,250.572 Q367.919,250.851 368.439,250.851 Q368.738,250.851 368.978,250.793 Q369.219,250.734 369.427,250.63 Q369.479,250.799 369.531,250.929 Q369.583,251.059 369.635,251.228 Q369.401,251.371 369.076,251.456 Q368.751,251.54 368.296,251.54 Q367.503,251.54 367.113,251.111 Q366.723,250.682 366.723,249.746 L366.723,245.833 L365.709,245.833 L365.709,245.144 L366.723,245.144 L366.983,243.324 L367.568,243.324 L367.568,245.144 L369.544,245.144 L369.544,245.833 L367.568,245.833 z" fill="#FFFFFF"/>
      <path d="M374.757,243.337 Q373.223,243.337 372.358,244.299 Q371.494,245.261 371.494,247.042 Q371.494,248.81 372.345,249.772 Q373.197,250.734 374.744,250.734 Q375.264,250.734 375.751,250.637 Q376.239,250.539 376.655,250.357 L376.876,251.085 Q376.408,251.306 375.895,251.423 Q375.381,251.54 374.731,251.54 Q373.665,251.54 372.891,251.215 Q372.118,250.89 371.611,250.305 Q371.104,249.72 370.857,248.888 Q370.61,248.056 370.61,247.042 Q370.61,246.054 370.883,245.222 Q371.156,244.39 371.682,243.799 Q372.209,243.207 372.976,242.876 Q373.743,242.544 374.744,242.544 Q375.394,242.544 375.875,242.648 Q376.356,242.752 376.785,242.947 Q376.733,243.129 376.674,243.311 Q376.616,243.493 376.564,243.675 Q375.81,243.337 374.757,243.337 z" fill="#FFFFFF"/>
      <path d="M379.32,246.379 Q379.463,246.145 379.645,245.905 Q379.827,245.664 380.055,245.469 Q380.282,245.274 380.561,245.151 Q380.841,245.027 381.166,245.027 Q381.504,245.027 381.68,245.086 Q381.855,245.144 381.933,245.183 Q381.868,245.404 381.829,245.619 Q381.79,245.833 381.725,246.054 Q381.452,245.859 381.01,245.859 Q380.451,245.859 380.009,246.171 Q379.567,246.483 379.294,247.042 L379.294,251.423 L378.423,251.423 L378.423,245.144 L379.099,245.144 z" fill="#FFFFFF"/>
      <path d="M383.519,248.667 Q383.597,249.707 384.162,250.279 Q384.728,250.851 385.781,250.851 Q386.21,250.851 386.645,250.767 Q387.081,250.682 387.445,250.513 L387.64,251.137 Q387.237,251.319 386.756,251.43 Q386.275,251.54 385.703,251.54 Q384.182,251.54 383.434,250.656 Q382.687,249.772 382.687,248.277 Q382.687,247.588 382.856,246.99 Q383.025,246.392 383.369,245.957 Q383.714,245.521 384.247,245.274 Q384.78,245.027 385.521,245.027 Q386.73,245.027 387.354,245.716 Q387.978,246.405 387.978,247.614 Q387.978,247.913 387.945,248.173 Q387.913,248.433 387.848,248.667 z M385.521,245.677 Q385.014,245.677 384.643,245.853 Q384.273,246.028 384.032,246.347 Q383.792,246.665 383.668,247.101 Q383.545,247.536 383.519,248.056 L387.146,248.056 Q387.172,247.991 387.172,247.822 Q387.172,247.653 387.172,247.614 Q387.172,246.678 386.795,246.178 Q386.418,245.677 385.521,245.677 z" fill="#FFFFFF"/>
      <path d="M393.243,248.238 L391.8,248.238 Q390.864,248.238 390.389,248.615 Q389.915,248.992 389.915,249.694 Q389.915,250.279 390.266,250.578 Q390.617,250.877 391.137,250.877 Q391.618,250.877 392.008,250.702 Q392.398,250.526 392.671,250.24 Q392.944,249.954 393.093,249.59 Q393.243,249.226 393.243,248.862 z M393.243,247.276 Q393.243,246.431 392.814,246.074 Q392.385,245.716 391.67,245.716 Q391.072,245.716 390.591,245.846 Q390.11,245.976 389.72,246.158 Q389.668,245.989 389.609,245.853 Q389.551,245.716 389.499,245.56 Q389.85,245.352 390.422,245.19 Q390.994,245.027 391.696,245.027 Q392.905,245.027 393.49,245.632 Q394.075,246.236 394.075,247.289 L394.075,251.423 L393.425,251.423 L393.217,250.201 Q393.061,250.474 392.866,250.715 Q392.671,250.955 392.404,251.144 Q392.138,251.332 391.793,251.436 Q391.449,251.54 390.981,251.54 Q390.578,251.54 390.233,251.423 Q389.889,251.306 389.629,251.072 Q389.369,250.838 389.219,250.494 Q389.07,250.149 389.07,249.694 Q389.07,248.641 389.792,248.121 Q390.513,247.601 391.813,247.601 L393.243,247.601 z" fill="#FFFFFF"/>
      <path d="M397.156,249.733 Q397.156,250.292 397.331,250.572 Q397.507,250.851 398.027,250.851 Q398.326,250.851 398.566,250.793 Q398.807,250.734 399.015,250.63 Q399.067,250.799 399.119,250.929 Q399.171,251.059 399.223,251.228 Q398.989,251.371 398.664,251.456 Q398.339,251.54 397.884,251.54 Q397.091,251.54 396.701,251.111 Q396.311,250.682 396.311,249.746 L396.311,245.833 L395.297,245.833 L395.297,245.144 L396.311,245.144 L396.571,243.324 L397.156,243.324 L397.156,245.144 L399.132,245.144 L399.132,245.833 L397.156,245.833 z" fill="#FFFFFF"/>
      <path d="M401.537,251.423 L400.653,251.423 L400.653,245.144 L401.537,245.144 z M400.471,243.103 Q400.471,242.843 400.633,242.668 Q400.796,242.492 401.095,242.492 Q401.407,242.492 401.563,242.668 Q401.719,242.843 401.719,243.103 Q401.719,243.363 401.563,243.539 Q401.407,243.714 401.095,243.714 Q400.796,243.714 400.633,243.539 Q400.471,243.363 400.471,243.103 z" fill="#FFFFFF"/>
      <path d="M405.177,251.423 L402.889,245.144 L403.786,245.144 Q404.059,245.937 404.358,246.75 Q404.657,247.562 404.93,248.355 L405.164,249.122 L405.619,250.656 Q405.723,250.318 405.859,249.889 Q405.996,249.46 406.1,249.122 L406.334,248.355 L407.478,245.144 L408.362,245.144 L406.087,251.423 z" fill="#FFFFFF"/>
      <path d="M410.013,248.667 Q410.091,249.707 410.656,250.279 Q411.222,250.851 412.275,250.851 Q412.704,250.851 413.139,250.767 Q413.575,250.682 413.939,250.513 L414.134,251.137 Q413.731,251.319 413.25,251.43 Q412.769,251.54 412.197,251.54 Q410.676,251.54 409.928,250.656 Q409.181,249.772 409.181,248.277 Q409.181,247.588 409.35,246.99 Q409.519,246.392 409.863,245.957 Q410.208,245.521 410.741,245.274 Q411.274,245.027 412.015,245.027 Q413.224,245.027 413.848,245.716 Q414.472,246.405 414.472,247.614 Q414.472,247.913 414.439,248.173 Q414.407,248.433 414.342,248.667 z M412.015,245.677 Q411.508,245.677 411.137,245.853 Q410.767,246.028 410.526,246.347 Q410.286,246.665 410.163,247.101 Q410.039,247.536 410.013,248.056 L413.64,248.056 Q413.666,247.991 413.666,247.822 Q413.666,247.653 413.666,247.614 Q413.666,246.678 413.289,246.178 Q412.912,245.677 412.015,245.677 z" fill="#FFFFFF"/>
      <path d="M421.05,248.992 L417.189,248.992 L416.305,251.423 L415.395,251.423 L418.658,242.661 L419.581,242.661 Q420.4,244.871 421.212,247.042 Q422.025,249.213 422.844,251.423 L421.934,251.423 z M417.488,248.199 L420.751,248.199 L419.75,245.508 Q419.607,245.053 419.444,244.533 Q419.282,244.013 419.139,243.571 Q418.97,244 418.801,244.533 Q418.632,245.066 418.489,245.508 z" fill="#FFFFFF"/>
      <path d="M425.041,248.433 Q425.041,248.94 425.197,249.369 Q425.353,249.798 425.626,250.11 Q425.899,250.422 426.263,250.598 Q426.627,250.773 427.056,250.773 Q427.42,250.773 427.764,250.637 Q428.109,250.5 428.362,250.195 Q428.616,249.889 428.772,249.402 Q428.928,248.914 428.928,248.199 Q428.928,246.99 428.434,246.399 Q427.94,245.807 427.173,245.807 Q426.549,245.807 425.983,246.132 Q425.418,246.457 425.041,246.99 z M424.872,245.144 L425.054,246.249 Q425.197,246.054 425.424,245.833 Q425.652,245.612 425.944,245.437 Q426.237,245.261 426.594,245.144 Q426.952,245.027 427.342,245.027 Q427.94,245.027 428.401,245.281 Q428.863,245.534 429.168,245.97 Q429.474,246.405 429.63,246.984 Q429.786,247.562 429.786,248.199 Q429.786,249.031 429.597,249.655 Q429.409,250.279 429.064,250.702 Q428.72,251.124 428.245,251.332 Q427.771,251.54 427.199,251.54 Q426.497,251.54 425.951,251.176 Q425.405,250.812 425.132,250.305 L425.041,250.331 L425.041,253.945 L424.17,253.945 L424.17,245.144 z" fill="#FFFFFF"/>
      <path d="M432.256,248.433 Q432.256,248.94 432.412,249.369 Q432.568,249.798 432.841,250.11 Q433.114,250.422 433.478,250.598 Q433.842,250.773 434.271,250.773 Q434.635,250.773 434.979,250.637 Q435.324,250.5 435.577,250.195 Q435.831,249.889 435.987,249.402 Q436.143,248.914 436.143,248.199 Q436.143,246.99 435.649,246.399 Q435.155,245.807 434.388,245.807 Q433.764,245.807 433.198,246.132 Q432.633,246.457 432.256,246.99 z M432.087,245.144 L432.269,246.249 Q432.412,246.054 432.639,245.833 Q432.867,245.612 433.159,245.437 Q433.452,245.261 433.809,245.144 Q434.167,245.027 434.557,245.027 Q435.155,245.027 435.616,245.281 Q436.078,245.534 436.383,245.97 Q436.689,246.405 436.845,246.984 Q437.001,247.562 437.001,248.199 Q437.001,249.031 436.812,249.655 Q436.624,250.279 436.279,250.702 Q435.935,251.124 435.46,251.332 Q434.986,251.54 434.414,251.54 Q433.712,251.54 433.166,251.176 Q432.62,250.812 432.347,250.305 L432.256,250.331 L432.256,253.945 L431.385,253.945 L431.385,245.144 z" fill="#FFFFFF"/>
      <path d="M440.173,250.877 Q441.005,250.877 441.356,250.572 Q441.707,250.266 441.707,249.811 Q441.707,249.538 441.583,249.33 Q441.46,249.122 441.245,248.973 Q441.031,248.823 440.738,248.713 Q440.446,248.602 440.121,248.498 Q439.757,248.381 439.419,248.219 Q439.081,248.056 438.821,247.835 Q438.561,247.614 438.405,247.315 Q438.249,247.016 438.249,246.639 Q438.249,245.859 438.847,245.443 Q439.445,245.027 440.459,245.027 Q440.992,245.027 441.473,245.125 Q441.954,245.222 442.331,245.404 Q442.292,245.573 442.233,245.729 Q442.175,245.885 442.136,246.028 Q441.785,245.872 441.395,245.788 Q441.005,245.703 440.537,245.703 Q439.796,245.703 439.438,245.957 Q439.081,246.21 439.081,246.626 Q439.081,247.12 439.458,247.367 Q439.835,247.614 440.433,247.796 Q441.46,248.121 442.012,248.576 Q442.565,249.031 442.565,249.824 Q442.565,250.604 441.999,251.072 Q441.434,251.54 440.212,251.54 Q439.627,251.54 439.113,251.449 Q438.6,251.358 438.249,251.176 Q438.288,251.02 438.346,250.851 Q438.405,250.682 438.444,250.539 Q438.795,250.682 439.25,250.78 Q439.705,250.877 440.173,250.877 z" fill="#FFFFFF"/>
    </g>
  </g>
</svg>
